<?xml version="1.0" encoding="UTF-8"?>
<!DOCTYPE svg PUBLIC "-//W3C//DTD SVG 1.1//EN" "http://www.w3.org/Graphics/SVG/1.1/DTD/svg11.dtd">
<svg xmlns="http://www.w3.org/2000/svg" version="1.1" width="1102px" height="208px" style="shape-rendering:geometricPrecision; text-rendering:geometricPrecision; image-rendering:optimizeQuality; fill-rule:evenodd; clip-rule:evenodd" xmlns:xlink="http://www.w3.org/1999/xlink">
<g><path style="opacity:0.982" fill="#161312" d="M 177.5,7.5 C 179.5,7.5 181.5,7.5 183.5,7.5C 186.9,9.03697 190.233,10.8703 193.5,13C 197.742,17.7316 201.742,22.5649 205.5,27.5C 205.933,30.1955 207.266,32.3621 209.5,34C 217.86,38.1799 226.193,42.3466 234.5,46.5C 234.5,47.5 234.5,48.5 234.5,49.5C 233.5,49.8333 232.833,50.5 232.5,51.5C 228.833,51.5 225.167,51.5 221.5,51.5C 220.475,51.8966 220.308,52.5632 221,53.5C 223.698,57.0247 226.531,60.3581 229.5,63.5C 229.66,65.153 230.326,66.4863 231.5,67.5C 234.038,71.4313 235.038,75.7646 234.5,80.5C 233.326,81.5137 232.66,82.847 232.5,84.5C 230.973,84.427 229.973,85.0937 229.5,86.5C 226.142,87.5269 224.475,89.8602 224.5,93.5C 220.326,96.0877 215.993,98.421 211.5,100.5C 211.158,101.338 210.492,101.672 209.5,101.5C 204.44,103.275 202.107,106.942 202.5,112.5C 201.167,112.5 199.833,112.5 198.5,112.5C 198.5,110.5 197.5,109.5 195.5,109.5C 193.472,105.638 193.139,101.638 194.5,97.5C 193.5,96.1667 192.5,96.1667 191.5,97.5C 188.827,112.022 183.327,125.355 175,137.5C 174.333,140.5 174.333,143.5 175,146.5C 177.542,152.293 179.376,158.293 180.5,164.5C 179.737,168.691 178.404,172.691 176.5,176.5C 174.412,178.336 173.079,180.669 172.5,183.5C 170.583,186.331 168.917,189.331 167.5,192.5C 165.167,192.5 162.833,192.5 160.5,192.5C 160.189,191.522 159.522,190.855 158.5,190.5C 157.534,192.396 157.201,194.396 157.5,196.5C 156.41,197.857 155.076,198.857 153.5,199.5C 149.833,199.5 146.167,199.5 142.5,199.5C 141.833,198.167 140.833,197.167 139.5,196.5C 138.731,186.174 138.065,175.841 137.5,165.5C 137.5,163.5 137.5,161.5 137.5,159.5C 135.901,159.232 134.568,159.566 133.5,160.5C 124.553,161.444 115.553,161.778 106.5,161.5C 105.167,161.5 104.5,162.167 104.5,163.5C 103.596,164.209 103.263,165.209 103.5,166.5C 102.671,174.657 102.171,182.99 102,191.5C 100.348,192.399 98.8484,193.399 97.5,194.5C 93.9581,194.813 90.6248,194.479 87.5,193.5C 85.5234,189.482 84.3568,185.148 84,180.5C 83.6667,175.5 83.3333,170.5 83,165.5C 81.0924,168.206 80.259,171.206 80.5,174.5C 80.5,182.167 80.5,189.833 80.5,197.5C 78.847,197.66 77.5137,198.326 76.5,199.5C 73.1667,199.5 69.8333,199.5 66.5,199.5C 63.3904,198.872 61.8904,196.872 62,193.5C 61.0578,186.194 60.5578,178.86 60.5,171.5C 60.6741,169.139 61.0074,166.806 61.5,164.5C 62.8086,163.376 63.4753,161.876 63.5,160C 63.0877,156.973 62.421,154.14 61.5,151.5C 61.405,149.214 60.7384,147.214 59.5,145.5C 57.0218,139.731 55.3551,133.731 54.5,127.5C 54.5,124.5 54.5,121.5 54.5,118.5C 52.8333,118.5 51.1667,118.5 49.5,118.5C 48.2196,117.069 46.5529,116.402 44.5,116.5C 43.5084,116.672 42.8417,116.338 42.5,115.5C 40.1496,113.787 39.1496,111.453 39.5,108.5C 42.941,108.699 46.2744,108.199 49.5,107C 55.0616,104.106 60.0616,100.439 64.5,96C 70.1596,93.5073 75.8263,91.3407 81.5,89.5C 100.833,89.5 120.167,89.5 139.5,89.5C 143.907,90.1592 146.907,88.1592 148.5,83.5C 148.823,77.3638 148.156,71.3638 146.5,65.5C 146.5,64.1667 145.833,63.5 144.5,63.5C 136.055,65.9986 127.389,66.9986 118.5,66.5C 118.167,65.5 117.5,64.8333 116.5,64.5C 116.5,63.8333 116.5,63.1667 116.5,62.5C 127.571,52.4303 139.237,43.097 151.5,34.5C 149.922,33.7022 148.256,33.2022 146.5,33C 139.508,32.5004 132.508,32.3337 125.5,32.5C 123.302,32.1201 121.635,32.7868 120.5,34.5C 120.167,34.5 119.833,34.5 119.5,34.5C 116.772,34.1706 114.438,34.8372 112.5,36.5C 109.911,36.461 107.911,37.461 106.5,39.5C 104.634,40.0138 102.8,40.6805 101,41.5C 99.6974,41.0217 98.5307,40.355 97.5,39.5C 97.5,38.5 97.5,37.5 97.5,36.5C 106.248,22.4509 118.915,14.4509 135.5,12.5C 140.518,12.3867 145.518,12.0534 150.5,11.5C 156.784,12.2569 162.951,13.5902 169,15.5C 171.052,11.9461 173.886,9.27946 177.5,7.5 Z"/></g>
<g><path style="opacity:0.816" fill="#463528" d="M 140.5,10.5 C 143.833,10.5 147.167,10.5 150.5,10.5C 150.5,10.8333 150.5,11.1667 150.5,11.5C 145.518,12.0534 140.518,12.3867 135.5,12.5C 137.167,11.8333 138.833,11.1667 140.5,10.5 Z"/></g>
<g><path style="opacity:0.247" fill="#ddb592" d="M 177.5,7.5 C 173.886,9.27946 171.052,11.9461 169,15.5C 162.951,13.5902 156.784,12.2569 150.5,11.5C 150.5,11.1667 150.5,10.8333 150.5,10.5C 156.441,10.3229 162.108,11.3229 167.5,13.5C 169.624,11.8793 171.624,10.046 173.5,8C 174.793,7.50999 176.127,7.34332 177.5,7.5 Z"/></g>
<g><path style="opacity:1" fill="#e8d2ba" d="M 184.5,14.5 C 184.389,13.8826 184.056,13.3826 183.5,13C 181.5,12.3333 179.5,12.3333 177.5,13C 176.295,14.3756 174.962,15.5423 173.5,16.5C 173.859,14.629 174.859,13.129 176.5,12C 179.5,11.3333 182.5,11.3333 185.5,12C 188.051,13.5158 187.718,14.3491 184.5,14.5 Z"/></g>
<g><path style="opacity:0.298" fill="#e8bd98" d="M 183.5,7.5 C 187.331,7.24905 190.664,8.41572 193.5,11C 198.865,15.5853 202.865,21.0853 205.5,27.5C 201.742,22.5649 197.742,17.7316 193.5,13C 190.233,10.8703 186.9,9.03697 183.5,7.5 Z"/></g>
<g><path style="opacity:1" fill="#f9ba86" d="M 184.5,14.5 C 183.167,14.8333 181.833,15.1667 180.5,15.5C 178.315,15.7036 176.315,16.3702 174.5,17.5C 173.833,17.5 173.5,17.1667 173.5,16.5C 174.962,15.5423 176.295,14.3756 177.5,13C 179.5,12.3333 181.5,12.3333 183.5,13C 184.056,13.3826 184.389,13.8826 184.5,14.5 Z"/></g>
<g><path style="opacity:1" fill="#f0d6bb" d="M 145.5,18.5 C 142.5,18.5 139.5,18.5 136.5,18.5C 137.929,15.2519 140.429,13.9186 144,14.5C 145.5,14.6667 147,14.8333 148.5,15C 147.364,16.1451 146.364,17.3117 145.5,18.5 Z"/></g>
<g><path style="opacity:1" fill="#aa6634" d="M 180.5,15.5 C 179.08,18.3489 177.08,19.0156 174.5,17.5C 176.315,16.3702 178.315,15.7036 180.5,15.5 Z"/></g>
<g><path style="opacity:1" fill="#ecd3b9" d="M 160.5,20.5 C 157.373,19.4192 154.04,18.7526 150.5,18.5C 153.204,15.6967 156.537,14.8634 160.5,16C 165.433,16.9832 165.433,18.4832 160.5,20.5 Z"/></g>
<g><path style="opacity:0.039" fill="#e4ba95" d="M 140.5,10.5 C 138.833,11.1667 137.167,11.8333 135.5,12.5C 118.915,14.4509 106.248,22.4509 97.5,36.5C 97.6726,33.8205 98.6726,31.4872 100.5,29.5C 110.966,17.268 124.3,10.9347 140.5,10.5 Z"/></g>
<g><path style="opacity:1" fill="#ead3bb" d="M 131.5,19.5 C 128.733,19.8583 126.067,20.525 123.5,21.5C 123.5,21.1667 123.5,20.8333 123.5,20.5C 126.11,17.028 129.443,15.6946 133.5,16.5C 133.058,17.7387 132.391,18.7387 131.5,19.5 Z"/></g>
<g><path style="opacity:1" fill="#f8b47d" d="M 136.5,18.5 C 139.5,18.5 142.5,18.5 145.5,18.5C 144.89,19.391 144.557,20.391 144.5,21.5C 141.287,21.81 138.287,21.4767 135.5,20.5C 135.328,19.5084 135.662,18.8417 136.5,18.5 Z"/></g>
<g><path style="opacity:1" fill="#fbb981" d="M 186.5,17.5 C 188.167,17.5 189.833,17.5 191.5,17.5C 192.759,18.9791 193.759,20.6458 194.5,22.5C 193.167,22.5 191.833,22.5 190.5,22.5C 189.889,20.2254 188.555,18.5588 186.5,17.5 Z"/></g>
<g><path style="opacity:1" fill="#f7b47c" d="M 150.5,18.5 C 154.04,18.7526 157.373,19.4192 160.5,20.5C 159.5,21.8333 158.5,23.1667 157.5,24.5C 154.095,23.6569 151.095,22.3236 148.5,20.5C 148.833,19.5 149.5,18.8333 150.5,18.5 Z"/></g>
<g><path style="opacity:1" fill="#fab780" d="M 131.5,19.5 C 131.5,20.5 131.5,21.5 131.5,22.5C 131.167,22.5 130.833,22.5 130.5,22.5C 128.599,22.4332 126.766,22.7665 125,23.5C 123.97,23.1639 123.47,22.4972 123.5,21.5C 126.067,20.525 128.733,19.8583 131.5,19.5 Z"/></g>
<g><path style="opacity:1" fill="#f2d9c0" d="M 169.5,24.5 C 168.41,23.1429 167.076,22.1429 165.5,21.5C 169.368,18.8635 173.035,19.3635 176.5,23C 174.187,23.662 171.854,24.162 169.5,24.5 Z"/></g>
<g><path style="opacity:1" fill="#bc6b2f" d="M 186.5,17.5 C 188.555,18.5588 189.889,20.2254 190.5,22.5C 188.453,22.5111 186.453,22.8444 184.5,23.5C 179.914,22.2038 179.581,20.3705 183.5,18C 184.448,17.5172 185.448,17.3505 186.5,17.5 Z"/></g>
<g><path style="opacity:1" fill="#d9c4ac" d="M 191.5,17.5 C 194.056,18.5434 196.223,20.2101 198,22.5C 198.688,23.3317 198.521,23.9984 197.5,24.5C 196.261,24.0576 195.261,23.3909 194.5,22.5C 193.759,20.6458 192.759,18.9791 191.5,17.5 Z"/></g>
<g><path style="opacity:1" fill="#bf6d2e" d="M 135.5,20.5 C 138.287,21.4767 141.287,21.81 144.5,21.5C 143.434,23.7014 142.767,26.0347 142.5,28.5C 139.833,28.5 137.167,28.5 134.5,28.5C 134.194,25.6146 134.527,22.9479 135.5,20.5 Z"/></g>
<g><path style="opacity:1" fill="#bb6b2e" d="M 148.5,20.5 C 151.095,22.3236 154.095,23.6569 157.5,24.5C 156.011,26.6451 155.011,28.9785 154.5,31.5C 151.833,31.1667 149.167,30.8333 146.5,30.5C 146.159,26.8405 146.825,23.5072 148.5,20.5 Z"/></g>
<g><path style="opacity:1" fill="#f0d8bd" d="M 119.5,23.5 C 116.497,24.6662 113.83,26.3328 111.5,28.5C 111.799,25.3579 113.466,23.1912 116.5,22C 118.875,19.5933 119.875,20.0933 119.5,23.5 Z"/></g>
<g><path style="opacity:1" fill="#bf6f32" d="M 123.5,20.5 C 123.5,20.8333 123.5,21.1667 123.5,21.5C 123.47,22.4972 123.97,23.1639 125,23.5C 126.766,22.7665 128.599,22.4332 130.5,22.5C 130.5,24.5 130.5,26.5 130.5,28.5C 128.901,28.2322 127.568,28.5655 126.5,29.5C 124.876,29.6399 123.71,28.9733 123,27.5C 122.204,24.9615 122.371,22.6282 123.5,20.5 Z"/></g>
<g><path style="opacity:1" fill="#f2b17c" d="M 165.5,21.5 C 167.076,22.1429 168.41,23.1429 169.5,24.5C 168.22,25.9313 166.553,26.5979 164.5,26.5C 163.609,25.8902 162.609,25.5569 161.5,25.5C 161.894,23.2901 163.227,21.9568 165.5,21.5 Z"/></g>
<g><path style="opacity:1" fill="#ad6732" d="M 161.5,25.5 C 162.609,25.5569 163.609,25.8902 164.5,26.5C 163,28.1786 161.167,29.5119 159,30.5C 158.751,28.332 159.584,26.6653 161.5,25.5 Z"/></g>
<g><path style="opacity:1" fill="#704225" d="M 130.5,22.5 C 130.833,22.5 131.167,22.5 131.5,22.5C 131.5,24.8333 131.5,27.1667 131.5,29.5C 129.833,29.5 128.167,29.5 126.5,29.5C 127.568,28.5655 128.901,28.2322 130.5,28.5C 130.5,26.5 130.5,24.5 130.5,22.5 Z"/></g>
<g><path style="opacity:1" fill="#cc8046" d="M 119.5,23.5 C 119.5,25.8333 119.5,28.1667 119.5,30.5C 117.801,30.6204 116.135,30.9537 114.5,31.5C 112.825,31.1316 111.825,30.1316 111.5,28.5C 113.83,26.3328 116.497,24.6662 119.5,23.5 Z"/></g>
<g><path style="opacity:1" fill="#dce2e8" d="M 228.5,72.5 C 225.774,72.7361 223.441,71.9028 221.5,70C 219.833,69.3333 218.167,69.3333 216.5,70C 215.978,70.5613 215.645,71.228 215.5,72C 216.551,73.5772 217.551,75.0772 218.5,76.5C 220.537,77.8465 222.537,79.1798 224.5,80.5C 224.5,81.5 224.5,82.5 224.5,83.5C 222.167,83.5 219.833,83.5 217.5,83.5C 212.473,83.0191 209.807,80.3524 209.5,75.5C 206.429,74.9245 204.429,76.0912 203.5,79C 204.298,83.701 205.632,88.201 207.5,92.5C 204.375,93.4794 201.042,93.8128 197.5,93.5C 186.851,93.4033 176.517,91.57 166.5,88C 161.634,84.7692 159.634,80.2692 160.5,74.5C 159.5,74.5 158.5,74.5 157.5,74.5C 156.962,79.2354 157.962,83.5687 160.5,87.5C 161.176,91.1867 162.676,94.5201 165,97.5C 170.443,103.784 176.61,109.117 183.5,113.5C 178.587,127.249 170.087,138.249 158,146.5C 155.927,160.758 154.761,175.092 154.5,189.5C 153.167,189.5 151.833,189.5 150.5,189.5C 148.983,179.735 147.149,169.735 145,159.5C 143.941,156.382 142.608,153.382 141,150.5C 140.184,149.177 139.017,148.511 137.5,148.5C 136.774,145.987 135.441,145.321 133.5,146.5C 123.807,147.965 114.141,147.799 104.5,146C 102.413,145.208 100.579,144.041 99,142.5C 97.3295,138.518 96.1629,134.518 95.5,130.5C 95.067,127.834 94.567,125.168 94,122.5C 92.4555,121.179 91.2888,121.512 90.5,123.5C 92.4793,129.684 92.9793,136.017 92,142.5C 87.3667,151.147 82.7001,159.813 78,168.5C 77.187,170.436 76.687,172.436 76.5,174.5C 74.4399,168.018 72.6066,161.351 71,154.5C 62.7814,140.234 58.9481,124.901 59.5,108.5C 60.6936,104.637 63.027,101.637 66.5,99.5C 67.7211,100.465 69.0544,100.298 70.5,99C 93.8333,98.6667 117.167,98.3333 140.5,98C 146.674,97.4306 150.674,94.2639 152.5,88.5C 152.457,87.5836 152.124,86.9169 151.5,86.5C 152.784,80.4866 152.784,74.4866 151.5,68.5C 157.219,65.115 161.552,60.4483 164.5,54.5C 165.294,51.198 165.96,47.8647 166.5,44.5C 165.5,44.5 164.5,44.5 163.5,44.5C 163.142,47.2666 162.475,49.9333 161.5,52.5C 160.735,52.0766 159.902,51.7432 159,51.5C 152.534,54.2089 146.034,56.7089 139.5,59C 140.416,59.2784 141.082,59.7784 141.5,60.5C 141.167,60.5 140.833,60.5 140.5,60.5C 138.874,60.0617 137.207,59.7284 135.5,59.5C 131.895,60.6518 128.228,61.6518 124.5,62.5C 123.584,62.4573 122.917,62.1239 122.5,61.5C 136.861,48.1388 152.861,36.9721 170.5,28C 173.406,26.6815 176.406,26.3482 179.5,27C 183.229,28.5371 186.895,30.0371 190.5,31.5C 190.439,29.4078 189.439,27.9078 187.5,27C 190.167,26.3333 192.833,26.3333 195.5,27C 201.359,31.6924 207.359,36.1924 213.5,40.5C 216.072,42.6363 217.239,45.303 217,48.5C 215.649,46.981 214.149,45.6477 212.5,44.5C 211.386,45.723 211.219,47.0563 212,48.5C 219.785,55.0864 225.285,63.0864 228.5,72.5 Z"/></g>
<g><path style="opacity:1" fill="#dcbb9c" d="M 108.5,30.5 C 107.167,32.1667 105.833,33.8333 104.5,35.5C 103.998,37.0847 102.998,37.5847 101.5,37C 103.303,33.8967 105.47,31.0633 108,28.5C 108.464,29.0944 108.631,29.7611 108.5,30.5 Z"/></g>
<g><path style="opacity:1" fill="#bf753d" d="M 108.5,30.5 C 109.712,33.6652 108.379,35.3319 104.5,35.5C 105.833,33.8333 107.167,32.1667 108.5,30.5 Z"/></g>
<g><path style="opacity:0.267" fill="#7f6654" d="M 125.5,32.5 C 125.5,32.8333 125.5,33.1667 125.5,33.5C 123.883,34.038 122.216,34.3713 120.5,34.5C 121.635,32.7868 123.302,32.1201 125.5,32.5 Z"/></g>
<g><path style="opacity:0.022" fill="#e4ba98" d="M 119.5,34.5 C 117.562,36.1628 115.228,36.8294 112.5,36.5C 114.438,34.8372 116.772,34.1706 119.5,34.5 Z"/></g>
<g><path style="opacity:0.004" fill="#dcb493" d="M 112.5,36.5 C 110.967,38.2451 108.967,39.2451 106.5,39.5C 107.911,37.461 109.911,36.461 112.5,36.5 Z"/></g>
<g><path style="opacity:0.125" fill="#e9bf9a" d="M 205.5,27.5 C 207.033,29.3548 208.7,31.1881 210.5,33C 218.045,36.9394 225.712,40.606 233.5,44C 234.252,44.6708 234.586,45.5041 234.5,46.5C 226.193,42.3466 217.86,38.1799 209.5,34C 207.266,32.3621 205.933,30.1955 205.5,27.5 Z"/></g>
<g><path style="opacity:0.2" fill="#e2b996" d="M 97.5,39.5 C 98.5307,40.355 99.6974,41.0217 101,41.5C 102.8,40.6805 104.634,40.0138 106.5,39.5C 104.484,42.1438 101.817,42.9772 98.5,42C 97.7476,41.3292 97.4142,40.4959 97.5,39.5 Z"/></g>
<g><path style="opacity:0.271" fill="#e2b996" d="M 125.5,33.5 C 125.5,33.1667 125.5,32.8333 125.5,32.5C 132.508,32.3337 139.508,32.5004 146.5,33C 148.256,33.2022 149.922,33.7022 151.5,34.5C 139.237,43.097 127.571,52.4303 116.5,62.5C 116.744,59.7374 118.077,57.5707 120.5,56C 129.55,48.6153 138.884,41.6153 148.5,35C 140.905,33.6439 133.238,33.1439 125.5,33.5 Z"/></g>
<g><path style="opacity:1" fill="#a7acb2" d="M 219.5,44.5 C 219.56,43.9569 219.893,43.6236 220.5,43.5C 223.952,44.7257 227.285,46.2257 230.5,48C 227.183,48.4983 223.85,48.665 220.5,48.5C 220.768,46.901 220.434,45.5676 219.5,44.5 Z"/></g>
<g><path style="opacity:0.114" fill="#e7bb96" d="M 234.5,49.5 C 234.5,50.8333 233.833,51.5 232.5,51.5C 232.833,50.5 233.5,49.8333 234.5,49.5 Z"/></g>
<g><path style="opacity:1" fill="#0e0e0e" d="M 182.5,50.5 C 191.161,49.3293 194.994,52.9959 194,61.5C 189.33,68.9773 184.33,69.3107 179,62.5C 177.593,57.6427 178.76,53.6427 182.5,50.5 Z"/></g>
<g><path style="opacity:0.973" fill="#000000" d="M 275.5,51.5 C 297.833,51.5 320.167,51.5 342.5,51.5C 342.5,61.5 342.5,71.5 342.5,81.5C 325.5,81.5 308.5,81.5 291.5,81.5C 291.5,95.8333 291.5,110.167 291.5,124.5C 295.833,124.5 300.167,124.5 304.5,124.5C 304.5,122.5 304.5,120.5 304.5,118.5C 302.167,118.5 299.833,118.5 297.5,118.5C 297.5,108.5 297.5,98.5 297.5,88.5C 312.5,88.5 327.5,88.5 342.5,88.5C 342.5,110.5 342.5,132.5 342.5,154.5C 319.498,154.667 296.498,154.5 273.5,154C 261.657,151.155 255.157,143.655 254,131.5C 253.059,110.79 253.393,90.1236 255,69.5C 258.306,59.4375 265.139,53.4375 275.5,51.5 Z"/></g>
<g><path style="opacity:0.969" fill="#000000" d="M 380.5,51.5 C 395.504,51.3334 410.504,51.5001 425.5,52C 438,53.8333 445.167,61 447,73.5C 447.667,93.5 447.667,113.5 447,133.5C 445.049,144.119 438.882,150.952 428.5,154C 411.833,154.667 395.167,154.667 378.5,154C 366.657,151.155 360.157,143.655 359,131.5C 358.059,110.79 358.393,90.1236 360,69.5C 363.306,59.4375 370.139,53.4375 380.5,51.5 Z M 396.5,81.5 C 400.833,81.5 405.167,81.5 409.5,81.5C 409.5,95.8333 409.5,110.167 409.5,124.5C 405.167,124.5 400.833,124.5 396.5,124.5C 396.5,110.167 396.5,95.8333 396.5,81.5 Z"/></g>
<g><path style="opacity:0.974" fill="#000000" d="M 481.5,51.5 C 496.833,51.5 512.167,51.5 527.5,51.5C 536.623,85.8257 546.29,119.992 556.5,154C 543.82,154.833 531.154,154.666 518.5,153.5C 517.907,151.618 517.24,149.785 516.5,148C 508.5,147.333 500.5,147.333 492.5,148C 491.76,149.785 491.093,151.618 490.5,153.5C 477.833,154.833 465.167,154.833 452.5,153.5C 462.577,119.604 472.244,85.6037 481.5,51.5 Z M 503.5,100.5 C 504.586,100.62 505.253,101.287 505.5,102.5C 506.606,107.428 507.94,112.261 509.5,117C 506.167,117.667 502.833,117.667 499.5,117C 501.379,111.649 502.713,106.149 503.5,100.5 Z"/></g>
<g><path style="opacity:0.969" fill="#000000" d="M 547.5,51.5 C 572.167,51.5 596.833,51.5 621.5,51.5C 621.5,61.5 621.5,71.5 621.5,81.5C 615.5,81.5 609.5,81.5 603.5,81.5C 603.5,105.833 603.5,130.167 603.5,154.5C 590.833,154.5 578.167,154.5 565.5,154.5C 565.5,130.167 565.5,105.833 565.5,81.5C 559.5,81.5 553.5,81.5 547.5,81.5C 547.5,71.5 547.5,61.5 547.5,51.5 Z"/></g>
<g><path style="opacity:0.966" fill="#000000" d="M 709.5,51.5 C 724.504,51.3334 739.504,51.5001 754.5,52C 764.896,53.1102 771.729,58.6102 775,68.5C 776.353,77.7754 776.853,87.1088 776.5,96.5C 763.833,96.5 751.167,96.5 738.5,96.5C 738.5,91.5 738.5,86.5 738.5,81.5C 734.167,81.5 729.833,81.5 725.5,81.5C 725.5,95.8333 725.5,110.167 725.5,124.5C 729.833,124.5 734.167,124.5 738.5,124.5C 738.5,119.833 738.5,115.167 738.5,110.5C 751.167,110.5 763.833,110.5 776.5,110.5C 781.467,144.866 766.8,159.533 732.5,154.5C 724.167,154.333 715.833,154.167 707.5,154C 695.657,151.155 689.157,143.655 688,131.5C 687.333,112.5 687.333,93.5 688,74.5C 689.555,61.4489 696.721,53.7822 709.5,51.5 Z"/></g>
<g><path style="opacity:0.963" fill="#000000" d="M 776.5,51.5 C 789.171,51.3334 801.838,51.5001 814.5,52C 819.124,58.7477 823.624,65.581 828,72.5C 832.833,65.6667 837.667,58.8333 842.5,52C 855.167,51.3333 867.833,51.3333 880.5,52C 869.793,71.2477 858.96,90.4144 848,109.5C 847.5,124.496 847.333,139.496 847.5,154.5C 834.833,154.5 822.167,154.5 809.5,154.5C 809.667,139.496 809.5,124.496 809,109.5C 797.889,90.2738 787.056,70.9405 776.5,51.5 Z"/></g>
<g><path style="opacity:0.969" fill="#000000" d="M 902.5,51.5 C 917.504,51.3334 932.504,51.5001 947.5,52C 960,53.8333 967.167,61 969,73.5C 969.667,93.5 969.667,113.5 969,133.5C 967.049,144.119 960.882,150.952 950.5,154C 933.833,154.667 917.167,154.667 900.5,154C 888.657,151.155 882.157,143.655 881,131.5C 880.059,110.79 880.393,90.1236 882,69.5C 885.306,59.4375 892.139,53.4375 902.5,51.5 Z M 918.5,81.5 C 922.833,81.5 927.167,81.5 931.5,81.5C 931.5,95.8333 931.5,110.167 931.5,124.5C 927.167,124.5 922.833,124.5 918.5,124.5C 918.5,110.167 918.5,95.8333 918.5,81.5 Z"/></g>
<g><path style="opacity:0.964" fill="#000000" d="M 984.5,51.5 C 997.167,51.5 1009.83,51.5 1022.5,51.5C 1022.5,75.8333 1022.5,100.167 1022.5,124.5C 1026.83,124.5 1031.17,124.5 1035.5,124.5C 1035.5,100.167 1035.5,75.8333 1035.5,51.5C 1048.17,51.5 1060.83,51.5 1073.5,51.5C 1073.67,78.8354 1073.5,106.169 1073,133.5C 1071.55,142.953 1066.38,149.453 1057.5,153C 1048.24,154.126 1038.9,154.626 1029.5,154.5C 1019.78,154.613 1010.11,154.113 1000.5,153C 991.055,148.953 985.889,141.786 985,131.5C 984.5,104.835 984.333,78.1687 984.5,51.5 Z"/></g>
<g><path style="opacity:1" fill="#e4e4e4" d="M 188.5,53.5 C 191.084,54.0483 192.084,55.715 191.5,58.5C 187.716,58.4747 186.716,56.8081 188.5,53.5 Z"/></g>
<g><path style="opacity:1" fill="#b4b9c0" d="M 161.5,52.5 C 160.251,54.1361 158.584,55.3028 156.5,56C 151.571,57.8102 146.571,59.3102 141.5,60.5C 141.082,59.7784 140.416,59.2784 139.5,59C 146.034,56.7089 152.534,54.2089 159,51.5C 159.902,51.7432 160.735,52.0766 161.5,52.5 Z"/></g>
<g><path style="opacity:1" fill="#b3b8bf" d="M 164.5,54.5 C 161.552,60.4483 157.219,65.115 151.5,68.5C 150.054,66.2181 149.721,63.8848 150.5,61.5C 155.752,60.2076 160.418,57.8743 164.5,54.5 Z"/></g>
<g><path style="opacity:0.227" fill="#e7be99" d="M 221.5,51.5 C 224.673,55.1846 227.34,59.1846 229.5,63.5C 226.531,60.3581 223.698,57.0247 221,53.5C 220.308,52.5632 220.475,51.8966 221.5,51.5 Z"/></g>
<g><path style="opacity:1" fill="#b0b4ba" d="M 140.5,60.5 C 134.089,62.5087 127.422,63.342 120.5,63C 121.044,62.2828 121.711,61.7828 122.5,61.5C 122.917,62.1239 123.584,62.4573 124.5,62.5C 128.228,61.6518 131.895,60.6518 135.5,59.5C 137.207,59.7284 138.874,60.0617 140.5,60.5 Z"/></g>
<g><path style="opacity:0.412" fill="#e3bc97" d="M 144.5,63.5 C 145.833,63.5 146.5,64.1667 146.5,65.5C 145.5,65.1667 144.833,64.5 144.5,63.5 Z"/></g>
<g><path style="opacity:0.055" fill="#deb491" d="M 116.5,64.5 C 117.5,64.8333 118.167,65.5 118.5,66.5C 117.167,66.5 116.5,65.8333 116.5,64.5 Z"/></g>
<g><path style="opacity:0.227" fill="#e3b996" d="M 229.5,63.5 C 231.104,64.287 231.771,65.6203 231.5,67.5C 230.326,66.4863 229.66,65.153 229.5,63.5 Z"/></g>
<g><path style="opacity:1" fill="#b2b7be" d="M 228.5,72.5 C 228.716,74.6807 227.883,76.3474 226,77.5C 223.966,75.9684 221.799,74.6351 219.5,73.5C 218.614,74.325 218.281,75.325 218.5,76.5C 217.551,75.0772 216.551,73.5772 215.5,72C 215.645,71.228 215.978,70.5613 216.5,70C 218.167,69.3333 219.833,69.3333 221.5,70C 223.441,71.9028 225.774,72.7361 228.5,72.5 Z"/></g>
<g><path style="opacity:1" fill="#999da1" d="M 229.5,77.5 C 231.984,79.0277 231.818,80.6944 229,82.5C 228.616,80.8034 228.782,79.1368 229.5,77.5 Z"/></g>
<g><path style="opacity:1" fill="#64666a" d="M 224.5,80.5 C 225.434,81.5676 225.768,82.901 225.5,84.5C 222.615,84.8064 219.948,84.4731 217.5,83.5C 219.833,83.5 222.167,83.5 224.5,83.5C 224.5,82.5 224.5,81.5 224.5,80.5 Z"/></g>
<g><path style="opacity:0.035" fill="#d6af8d" d="M 234.5,80.5 C 234.771,82.3797 234.104,83.713 232.5,84.5C 232.66,82.847 233.326,81.5137 234.5,80.5 Z"/></g>
<g><path style="opacity:0.459" fill="#e3ba98" d="M 148.5,83.5 C 146.907,88.1592 143.907,90.1592 139.5,89.5C 143.023,88.315 146.023,86.315 148.5,83.5 Z"/></g>
<g><path style="opacity:0.035" fill="#e1b895" d="M 232.5,84.5 C 232.027,85.9063 231.027,86.573 229.5,86.5C 229.973,85.0937 230.973,84.427 232.5,84.5 Z"/></g>
<g><path style="opacity:1" fill="#f0f0f1" d="M 151.5,86.5 C 152.124,86.9169 152.457,87.5836 152.5,88.5C 150.674,94.2639 146.674,97.4306 140.5,98C 117.167,98.3333 93.8333,98.6667 70.5,99C 69.0544,100.298 67.7211,100.465 66.5,99.5C 70.3319,96.6076 74.6653,94.7743 79.5,94C 100.833,93.6667 122.167,93.3333 143.5,93C 146.961,91.6954 149.628,89.5287 151.5,86.5 Z"/></g>
<g><path style="opacity:1" fill="#d8696b" d="M 217.5,89.5 C 214.941,89.1984 212.607,89.5318 210.5,90.5C 208.375,88.1388 207.709,85.4721 208.5,82.5C 211.968,84.3067 214.968,86.6401 217.5,89.5 Z"/></g>
<g><path style="opacity:1" fill="#ee9598" d="M 217.5,89.5 C 220.595,92.0621 220.095,93.3954 216,93.5C 213.345,93.876 211.512,92.876 210.5,90.5C 212.607,89.5318 214.941,89.1984 217.5,89.5 Z"/></g>
<g><path style="opacity:0.259" fill="#d1ac8b" d="M 229.5,86.5 C 227.576,88.695 225.909,91.0283 224.5,93.5C 224.475,89.8602 226.142,87.5269 229.5,86.5 Z"/></g>
<g><path style="opacity:1" fill="#b6bbc2" d="M 160.5,87.5 C 167.859,92.952 176.192,95.6187 185.5,95.5C 186.968,96.7791 187.635,98.4458 187.5,100.5C 186.612,105.073 185.279,109.406 183.5,113.5C 176.61,109.117 170.443,103.784 165,97.5C 162.676,94.5201 161.176,91.1867 160.5,87.5 Z"/></g>
<g><path style="opacity:1" fill="#6e7074" d="M 207.5,92.5 C 208.043,92.56 208.376,92.8933 208.5,93.5C 204.685,94.8077 201.019,94.8077 197.5,93.5C 201.042,93.8128 204.375,93.4794 207.5,92.5 Z"/></g>
<g><path style="opacity:1" fill="#676a6e" d="M 185.5,95.5 C 186.5,95.5 187.5,95.5 188.5,95.5C 188.784,97.4147 188.451,99.0813 187.5,100.5C 187.635,98.4458 186.968,96.7791 185.5,95.5 Z"/></g>
<g><path style="opacity:1" fill="#b2b6bd" d="M 197.5,97.5 C 200.85,97.335 204.183,97.5017 207.5,98C 203.612,100.222 200.779,103.388 199,107.5C 196.236,104.577 195.736,101.244 197.5,97.5 Z"/></g>
<g><path style="opacity:0.055" fill="#dcb593" d="M 224.5,93.5 C 224.719,94.675 224.386,95.675 223.5,96.5C 219.677,98.4138 215.677,99.7471 211.5,100.5C 215.993,98.421 220.326,96.0877 224.5,93.5 Z"/></g>
<g><path style="opacity:0.235" fill="#e7bc97" d="M 81.5,89.5 C 75.8263,91.3407 70.1596,93.5073 64.5,96C 60.0616,100.439 55.0616,104.106 49.5,107C 46.2744,108.199 42.941,108.699 39.5,108.5C 39.1496,111.453 40.1496,113.787 42.5,115.5C 41.4168,115.461 40.4168,115.127 39.5,114.5C 38.2234,111.966 38.2234,109.466 39.5,107C 47.9379,107.233 54.6045,103.9 59.5,97C 66.1854,92.6048 73.5188,90.1048 81.5,89.5 Z"/></g>
<g><path style="opacity:0.042" fill="#f0c6a1" d="M 209.5,101.5 C 208.207,103.296 206.707,104.963 205,106.5C 204.963,108.974 204.13,110.974 202.5,112.5C 202.107,106.942 204.44,103.275 209.5,101.5 Z"/></g>
<g><path style="opacity:1" fill="#d6d8da" d="M 54.5,107.5 C 55.2389,107.369 55.9056,107.536 56.5,108C 54.8866,110.228 54.22,112.728 54.5,115.5C 50.7715,115.424 47.4381,114.257 44.5,112C 48.2641,111.148 51.5974,109.648 54.5,107.5 Z"/></g>
<g><path style="opacity:0.349" fill="#9e816a" d="M 195.5,109.5 C 197.5,109.5 198.5,110.5 198.5,112.5C 197.167,111.833 196.167,110.833 195.5,109.5 Z"/></g>
<g><path style="opacity:0.031" fill="#dbb492" d="M 195.5,109.5 C 193.125,107.934 191.958,105.601 192,102.5C 190.641,107.938 188.974,113.272 187,118.5C 183.3,125.52 179.633,132.52 176,139.5C 176.603,146.332 178.27,152.999 181,159.5C 181.667,163.167 181.667,166.833 181,170.5C 180.186,173.177 178.686,175.177 176.5,176.5C 178.404,172.691 179.737,168.691 180.5,164.5C 179.376,158.293 177.542,152.293 175,146.5C 174.333,143.5 174.333,140.5 175,137.5C 183.327,125.355 188.827,112.022 191.5,97.5C 192.5,96.1667 193.5,96.1667 194.5,97.5C 193.139,101.638 193.472,105.638 195.5,109.5 Z"/></g>
<g><path style="opacity:0.02" fill="#cea98a" d="M 44.5,116.5 C 46.5529,116.402 48.2196,117.069 49.5,118.5C 47.4471,118.598 45.7804,117.931 44.5,116.5 Z"/></g>
<g><path style="opacity:0.938" fill="#000000" d="M 649.5,117.5 C 667.968,116.799 675.468,125.466 672,143.5C 666.834,153.66 658.667,157.16 647.5,154C 636.173,147.686 633.006,138.519 638,126.5C 641.045,122.406 644.878,119.406 649.5,117.5 Z"/></g>
<g><path style="opacity:0.624" fill="#aa8a71" d="M 49.5,118.5 C 51.1667,118.5 52.8333,118.5 54.5,118.5C 54.5,121.5 54.5,124.5 54.5,127.5C 53.5269,125.052 53.1936,122.385 53.5,119.5C 51.901,119.768 50.5676,119.434 49.5,118.5 Z"/></g>
<g><path style="opacity:1" fill="#b2b7bd" d="M 95.5,130.5 C 96.1629,134.518 97.3295,138.518 99,142.5C 100.579,144.041 102.413,145.208 104.5,146C 114.141,147.799 123.807,147.965 133.5,146.5C 135.023,149.635 135.69,152.968 135.5,156.5C 120.808,159.675 106.308,159.009 92,154.5C 91.5,154.167 91,153.833 90.5,153.5C 94.942,146.461 96.6087,138.795 95.5,130.5 Z"/></g>
<g><path style="opacity:1" fill="#b1b5bc" d="M 175.5,158.5 C 173.05,159.777 170.717,161.277 168.5,163C 167.002,165.664 165.002,167.83 162.5,169.5C 162.882,164.839 161.882,160.506 159.5,156.5C 160.108,153.855 160.608,151.188 161,148.5C 164.632,145.87 167.965,142.87 171,139.5C 171.99,145.966 173.49,152.299 175.5,158.5 Z"/></g>
<g><path style="opacity:0.008" fill="#caa688" d="M 59.5,145.5 C 60.7384,147.214 61.405,149.214 61.5,151.5C 60.8826,151.389 60.3826,151.056 60,150.5C 59.7266,148.899 59.2266,147.399 58.5,146C 58.7284,145.601 59.0618,145.435 59.5,145.5 Z"/></g>
<g><path style="opacity:1" fill="#b5bac1" d="M 59.5,108.5 C 58.9481,124.901 62.7814,140.234 71,154.5C 72.6066,161.351 74.4399,168.018 76.5,174.5C 76.5,179.5 76.5,184.5 76.5,189.5C 72.611,189.376 69.2777,190.709 66.5,193.5C 65.7492,192.624 65.2492,191.624 65,190.5C 64.4268,185.674 63.9268,180.841 63.5,176C 64.1827,170.271 65.1827,164.604 66.5,159C 64.0808,148.406 61.2475,137.906 58,127.5C 57.3333,122.167 57.3333,116.833 58,111.5C 58.2321,110.263 58.7321,109.263 59.5,108.5 Z"/></g>
<g><path style="opacity:1" fill="#b6bbc2" d="M 137.5,148.5 C 139.017,148.511 140.184,149.177 141,150.5C 142.608,153.382 143.941,156.382 145,159.5C 147.149,169.735 148.983,179.735 150.5,189.5C 148.249,190.411 146.249,191.744 144.5,193.5C 143.833,191.167 143.167,188.833 142.5,186.5C 142.388,173.577 140.721,160.91 137.5,148.5 Z"/></g>
<g><path style="opacity:0.027" fill="#cda889" d="M 61.5,151.5 C 62.421,154.14 63.0877,156.973 63.5,160C 63.4753,161.876 62.8086,163.376 61.5,164.5C 61.3403,159.956 61.3403,155.622 61.5,151.5 Z"/></g>
<g><path style="opacity:1" fill="#b2b7bd" d="M 98.5,183.5 C 98.5,180.167 98.5,176.833 98.5,173.5C 91.3891,175.754 88.3891,180.421 89.5,187.5C 89.44,188.043 89.1067,188.376 88.5,188.5C 86.8264,179.897 86.3264,171.23 87,162.5C 87.5431,160.369 88.3764,158.369 89.5,156.5C 93.5476,158.172 97.5476,159.838 101.5,161.5C 99.988,168.875 98.988,176.208 98.5,183.5 Z"/></g>
<g><path style="opacity:1" fill="#d8dde4" d="M 175.5,158.5 C 177.076,161.228 177.576,164.228 177,167.5C 174.588,172.659 171.921,177.659 169,182.5C 167.293,183.138 165.46,183.138 163.5,182.5C 162.47,181.448 161.803,180.114 161.5,178.5C 162.095,175.86 162.428,173.193 162.5,170.5C 162.5,170.167 162.5,169.833 162.5,169.5C 165.002,167.83 167.002,165.664 168.5,163C 170.717,161.277 173.05,159.777 175.5,158.5 Z"/></g>
<g><path style="opacity:0.502" fill="#957965" d="M 133.5,160.5 C 134.568,159.566 135.901,159.232 137.5,159.5C 137.5,161.5 137.5,163.5 137.5,165.5C 136.549,164.081 136.216,162.415 136.5,160.5C 135.5,160.5 134.5,160.5 133.5,160.5 Z"/></g>
<g><path style="opacity:0.141" fill="#e4bf9b" d="M 106.5,161.5 C 106.167,162.5 105.5,163.167 104.5,163.5C 104.5,162.167 105.167,161.5 106.5,161.5 Z"/></g>
<g><path style="opacity:0.016" fill="#f7cca7" d="M 61.5,164.5 C 61.0074,166.806 60.6741,169.139 60.5,171.5C 60.1667,171.5 59.8333,171.5 59.5,171.5C 59.1706,168.772 59.8372,166.438 61.5,164.5 Z"/></g>
<g><path style="opacity:0.11" fill="#d3af90" d="M 87.5,193.5 C 85.9826,193.489 84.8159,192.823 84,191.5C 83.113,184.856 82.4463,178.189 82,171.5C 81.7679,172.737 81.2679,173.737 80.5,174.5C 80.259,171.206 81.0924,168.206 83,165.5C 83.3333,170.5 83.6667,175.5 84,180.5C 84.3568,185.148 85.5234,189.482 87.5,193.5 Z"/></g>
<g><path style="opacity:1" fill="#dbe1e8" d="M 98.5,183.5 C 95.122,184.023 92.122,185.356 89.5,187.5C 88.3891,180.421 91.3891,175.754 98.5,173.5C 98.5,176.833 98.5,180.167 98.5,183.5 Z"/></g>
<g><path style="opacity:0.769" fill="#aa896f" d="M 103.5,166.5 C 103.5,174.833 103.5,183.167 103.5,191.5C 102.089,193.539 100.089,194.539 97.5,194.5C 98.8484,193.399 100.348,192.399 102,191.5C 102.171,182.99 102.671,174.657 103.5,166.5 Z"/></g>
<g><path style="opacity:1" fill="#aeb3b9" d="M 162.5,170.5 C 162.428,173.193 162.095,175.86 161.5,178.5C 161.803,180.114 162.47,181.448 163.5,182.5C 161.833,182.5 160.167,182.5 158.5,182.5C 158.16,177.867 159.494,173.867 162.5,170.5 Z"/></g>
<g><path style="opacity:0.063" fill="#facca2" d="M 104.5,163.5 C 104.611,164.117 104.944,164.617 105.5,165C 104.846,173.932 104.179,182.765 103.5,191.5C 103.5,183.167 103.5,174.833 103.5,166.5C 103.263,165.209 103.596,164.209 104.5,163.5 Z"/></g>
<g><path style="opacity:0.063" fill="#eac09a" d="M 176.5,176.5 C 176.416,179.682 175.083,182.015 172.5,183.5C 173.079,180.669 174.412,178.336 176.5,176.5 Z"/></g>
<g><path style="opacity:0.071" fill="#e7be9b" d="M 172.5,183.5 C 172.087,187.338 170.42,190.338 167.5,192.5C 168.917,189.331 170.583,186.331 172.5,183.5 Z"/></g>
<g><path style="opacity:1" fill="#636569" d="M 142.5,186.5 C 143.167,188.833 143.833,191.167 144.5,193.5C 144.44,194.043 144.107,194.376 143.5,194.5C 142.52,191.914 142.187,189.247 142.5,186.5 Z"/></g>
<g><path style="opacity:0.333" fill="#7d6755" d="M 160.5,192.5 C 158.824,193.183 158.157,194.517 158.5,196.5C 158.167,196.5 157.833,196.5 157.5,196.5C 157.201,194.396 157.534,192.396 158.5,190.5C 159.522,190.855 160.189,191.522 160.5,192.5 Z"/></g>
<g><path style="opacity:0.216" fill="#c4a083" d="M 59.5,171.5 C 59.8333,171.5 60.1667,171.5 60.5,171.5C 60.5578,178.86 61.0578,186.194 62,193.5C 61.8904,196.872 63.3904,198.872 66.5,199.5C 64.2776,199.822 62.4443,199.155 61,197.5C 59.8551,188.87 59.3551,180.203 59.5,171.5 Z"/></g>
<g><path style="opacity:0.012" fill="#e6bd99" d="M 139.5,196.5 C 140.833,197.167 141.833,198.167 142.5,199.5C 140.5,199.5 139.5,198.5 139.5,196.5 Z"/></g>
<g><path style="opacity:0.02" fill="#d5ae8f" d="M 80.5,197.5 C 79.8166,199.176 78.4832,199.843 76.5,199.5C 77.5137,198.326 78.847,197.66 80.5,197.5 Z"/></g>
<g><path style="opacity:0.008" fill="#d5ad8a" d="M 157.5,196.5 C 157.833,196.5 158.167,196.5 158.5,196.5C 158.5,197.5 158.5,198.5 158.5,199.5C 156.833,199.5 155.167,199.5 153.5,199.5C 155.076,198.857 156.41,197.857 157.5,196.5 Z"/></g>
</svg>
